<?xml version="1.0" encoding="utf-8"?>
<!-- Generator: Adobe Illustrator 16.0.3, SVG Export Plug-In . SVG Version: 6.00 Build 0)  -->
<!DOCTYPE svg PUBLIC "-//W3C//DTD SVG 1.1//EN" "http://www.w3.org/Graphics/SVG/1.1/DTD/svg11.dtd">
<svg version="1.1" id="Layer_1"
  xmlns="http://www.w3.org/2000/svg"
  xmlns:xlink="http://www.w3.org/1999/xlink" x="0px" y="0px" viewBox="56.697 284.704 581.102 581.103" enable-background="new 56.697 284.704 581.102 581.103" xml:space="preserve">
  <path fill="#CFD8DC" d="M64.488,805.929V448.758h565.521v357.171c0,32.741-26.788,59.527-59.527,59.527H124.018
	C91.276,865.457,64.488,838.671,64.488,805.929z"/>
  <path fill="#F44336" d="M630.009,389.23v89.292H64.488V389.23c0-32.741,26.788-59.529,59.529-59.529H570.48
	C603.22,329.701,630.009,356.489,630.009,389.23z"/>
  <g>
    <circle fill="#B71C1C" cx="481.188" cy="389.23" r="44.646"/>
    <circle fill="#B71C1C" cx="213.31" cy="389.23" r="44.646"/>
  </g>
  <g>
    <path fill="#B0BEC5" d="M481.188,285.055c-16.371,0-29.766,13.395-29.766,29.765v74.41c0,16.371,13.395,29.764,29.766,29.764
		c16.37,0,29.764-13.395,29.764-29.764v-74.41C510.951,298.448,497.558,285.055,481.188,285.055z"/>
    <path fill="#B0BEC5" d="M213.31,285.055c-16.371,0-29.765,13.395-29.765,29.765v74.41c0,16.371,13.394,29.764,29.765,29.764
		s29.765-13.395,29.765-29.764v-74.41C243.073,298.448,229.68,285.055,213.31,285.055z"/>
  </g>
  <g>
    <path fill="#90A4AE" d="M183.545,538.051h59.528v59.528h-59.528V538.051z"/>
    <path fill="#90A4AE" d="M272.838,538.051h59.527v59.528h-59.527V538.051z"/>
    <path fill="#90A4AE" d="M362.129,538.051h59.529v59.528h-59.529V538.051z"/>
    <path fill="#90A4AE" d="M451.422,538.051h59.528v59.528h-59.528V538.051z"/>
    <path fill="#90A4AE" d="M183.545,627.343h59.528v59.529h-59.528V627.343z"/>
    <path fill="#90A4AE" d="M272.838,627.343h59.527v59.529h-59.527V627.343z"/>
    <path fill="#90A4AE" d="M362.129,627.343h59.529v59.529h-59.529V627.343z"/>
    <path fill="#90A4AE" d="M451.422,627.343h59.528v59.529h-59.528V627.343z"/>
    <path fill="#90A4AE" d="M183.545,716.636h59.528v59.529h-59.528V716.636z"/>
    <path fill="#90A4AE" d="M272.838,716.636h59.527v59.529h-59.527V716.636z"/>
    <path fill="#90A4AE" d="M362.129,716.636h59.529v59.529h-59.529V716.636z"/>
    <path fill="#90A4AE" d="M451.422,716.636h59.528v59.529h-59.528V716.636z"/>
  </g>
</svg>
