<svg xmlns="http://www.w3.org/2000/svg" viewBox="0 0 20 20"><defs><style>.cls-1{fill:#fff;}.cls-2{fill:#4f8ed6;}</style></defs><g id="iconcol"><path class="cls-1" d="M2,5.83H18V16a2,2,0,0,1-2,2H4a2,2,0,0,1-2-2Z"/><path class="cls-1" d="M2,7H18v9a2,2,0,0,1-2,2H4a2,2,0,0,1-2-2Z"/><path class="cls-1" d="M2,6H18V16a2,2,0,0,1-2,2H4a2,2,0,0,1-2-2Z"/><rect class="cls-2" x="3.74" y="7.5" width="2" height="2"/><rect class="cls-2" x="7.24" y="7.5" width="2" height="2"/><rect class="cls-2" x="10.74" y="7.5" width="2" height="2"/><rect class="cls-2" x="14.24" y="7.5" width="2" height="2"/><rect class="cls-2" x="3.74" y="11" width="2" height="2"/><rect class="cls-2" x="7.24" y="11" width="2" height="2"/><rect class="cls-2" x="10.74" y="11" width="2" height="2"/><rect class="cls-2" x="14.24" y="11" width="2" height="2"/><rect class="cls-2" x="3.74" y="14.5" width="2" height="2"/><rect class="cls-2" x="7.24" y="14.5" width="2" height="2"/><rect class="cls-2" x="10.74" y="14.5" width="2" height="2"/><rect class="cls-2" x="14.24" y="14.5" width="2" height="2"/><path class="cls-2" d="M16.21,0V1a1,1,0,0,1-2,0V0h-1.5V1a1,1,0,0,1-2,0V0H9.21V1a1,1,0,0,1-2,0V0H5.71V1a1,1,0,0,1-2,0V0A4,4,0,0,0,0,4V16a4,4,0,0,0,4,4H16a4,4,0,0,0,4-4V4A4,4,0,0,0,16.21,0ZM18,16a2,2,0,0,1-2,2H4a2,2,0,0,1-2-2V6H18Z"/></g></svg>