<svg xmlns="http://www.w3.org/2000/svg" viewBox="0 0 20 20"><defs><style>.cls-1{fill:#fff;}.cls-2{fill:#4f8ed6;}</style></defs><g id="iconcol"><path class="cls-1" d="M2,5.83H18V16a2,2,0,0,1-2,2H4a2,2,0,0,1-2-2Z"/><path class="cls-1" d="M2,7H18v9a2,2,0,0,1-2,2H4a2,2,0,0,1-2-2Z"/><path class="cls-1" d="M1.28,5.27h16v10a2,2,0,0,1-2,2h-12a2,2,0,0,1-2-2Z"/><rect class="cls-2" x="3.74" y="7.5" width="2" height="2"/><rect class="cls-2" x="7.24" y="7.5" width="2" height="2"/><rect class="cls-2" x="3.74" y="11" width="2" height="2"/><rect class="cls-2" x="3.74" y="14.5" width="2" height="2"/><path class="cls-2" d="M16.21,0V1a1,1,0,0,1-2,0V0h-1.5V1a1,1,0,0,1-2,0V0H9.21V1a1,1,0,0,1-2,0V0H5.71V1a1,1,0,0,1-2,0V0A4,4,0,0,0,0,4V16a4,4,0,0,0,4,4H16a4,4,0,0,0,4-4V4A4,4,0,0,0,16.21,0ZM17,13.14,18,13v2.43a.57.57,0,0,0-.11-.36l-1.09-1.4A2.28,2.28,0,0,0,17,13.14Zm-.16-2.6L17.9,9A.51.51,0,0,0,18,8.75v2.4l-.94-.1A2.28,2.28,0,0,0,16.84,10.54ZM16,18H4a2,2,0,0,1-2-2V6H18V8.59a.63.63,0,0,0-.16-.34l-.32-.32a.6.6,0,0,0-.76,0L15.31,9a2.36,2.36,0,0,0-.52-.21L14.54,7a.61.61,0,0,0-.58-.5h-.45a.61.61,0,0,0-.58.5l-.25,1.78a2.14,2.14,0,0,0-.52.22L10.72,7.88a.6.6,0,0,0-.76,0l-.32.32A.62.62,0,0,0,9.58,9l1.09,1.46a2,2,0,0,0-.22.52l-1.78.23a.6.6,0,0,0-.5.57v.46a.59.59,0,0,0,.5.56l1.75.21a2,2,0,0,0,.22.52L9.58,15a.62.62,0,0,0,.06.77l.32.32a.62.62,0,0,0,.77.07l1.51-1.06a2.49,2.49,0,0,0,.51.21l.2,1.75a.57.57,0,0,0,.56.5H14a.63.63,0,0,0,.6-.49l.34-1.81a2.28,2.28,0,0,0,.51-.21l1.35,1.08a.57.57,0,0,0,.75,0l.32-.32a.52.52,0,0,0,.16-.35V16A2,2,0,0,1,16,18Zm-.2-6a2.06,2.06,0,1,1-2-2.06A2.05,2.05,0,0,1,15.79,12Z"/><rect class="cls-2" x="7.24" y="14.5" width="2" height="2"/><rect class="cls-2" x="7.24" y="11" width="0.5" height="2"/></g></svg>