<svg xmlns="http://www.w3.org/2000/svg" viewBox="0 0 20 20"><defs><style>.cls-1{fill:#fff;}.cls-2{fill:#c254c7;}</style></defs><g id="iconcol"><path class="cls-1" d="M16,2H4A2,2,0,0,0,2,4V16a2,2,0,0,0,2,2H16a2,2,0,0,0,2-2V4A2,2,0,0,0,16,2Z"/><path class="cls-1" d="M16,2H4A2,2,0,0,0,2,4V16a2,2,0,0,0,2,2H16a2,2,0,0,0,2-2V4A2,2,0,0,0,16,2Z"/><path class="cls-2" d="M16,0H4A4,4,0,0,0,0,4V16a4,4,0,0,0,4,4H16a4,4,0,0,0,4-4V4A4,4,0,0,0,16,0ZM2,16V4A2,2,0,0,1,4,2H16a2,2,0,0,1,2,2V15.68l-1.41-2L15,11.49a1.68,1.68,0,0,0-.69-.56,2.92,2.92,0,0,1-2.05,1.48,1.71,1.71,0,0,0,.32.84l1.59,2.2L16,18H4A2,2,0,0,1,2,16Z"/><path class="cls-2" d="M12.45,11.34l.14-.06.06,0,0,0L13,11l.08-.07h0l.14-.16a1.71,1.71,0,0,0,.11-.14l.06-.09,0-.05c-.53-.58-1.76-1.73-2.07-1.5s.41,1.75.79,2.44h.05l.1,0Z"/><path class="cls-2" d="M8.82,4.5A3,3,0,0,0,4.16,7.89c.58,1.57,2,2.43,3.24,3.44A4,4,0,0,1,9,13.39a1.65,1.65,0,0,1-.7,1.86c-.57.3-.06,1.16.51.86a2.77,2.77,0,0,0,.86-3.75c-.88-1.71-2.84-2.4-4-3.88A2.44,2.44,0,0,1,5.2,5.8,2,2,0,0,1,7,4.82c1.55,0,2.42,2,2.88,3.26.22.59,1.19.34,1-.27A8,8,0,0,0,8.82,4.5Z"/></g></svg>